<?xml version="1.0" encoding="UTF-8" standalone="no"?><!DOCTYPE svg PUBLIC "-//W3C//DTD SVG 1.1//EN" "http://www.w3.org/Graphics/SVG/1.1/DTD/svg11.dtd"><svg width="100%" height="100%" viewBox="0 0 834 834" version="1.1" xmlns="http://www.w3.org/2000/svg" xmlns:xlink="http://www.w3.org/1999/xlink" xml:space="preserve" xmlns:serif="http://www.serif.com/" style="fill-rule:evenodd;clip-rule:evenodd;stroke-linejoin:round;stroke-miterlimit:2;"><circle cx="416.667" cy="416.667" r="416.667" style="fill:#f20d0d;"/><path d="M416.527,641.677c26.541,-0 48.056,-21.516 48.056,-48.056c0,-116.024 0,-401.954 0,-401.954l-95.833,-0l-0,402.704c-0,12.546 4.984,24.579 13.855,33.45c8.872,8.872 20.904,13.856 33.451,13.856c0.157,-0 0.314,-0 0.471,-0Z" style="fill:#fff;"/><path d="M600,228.932c0,-9.883 -3.926,-19.362 -10.915,-26.35c-6.989,-6.989 -16.467,-10.915 -26.351,-10.915c-70.339,-0 -221.901,-0 -292.194,-0c-9.868,-0 -19.332,3.92 -26.309,10.897c-6.978,6.978 -10.898,16.441 -10.898,26.309c0,0.038 0,0.075 0,0.113c0,20.81 16.871,37.681 37.681,37.681c70.569,-0 221.841,-0 291.93,-0c20.466,-0 37.056,-16.591 37.056,-37.056c-0,-0.226 -0,-0.452 -0,-0.679Z" style="fill:#fff;"/></svg>